<svg width="234" height="42" viewBox="0 0 234 42" fill="none" xmlns="http://www.w3.org/2000/svg">
<path d="M27 14.5711V9H13.956V14.5011H15.9973L11.9582 19.0364H10.3078V14.5011H12.5952V9H9.49705V11.0577H7.81769V9H4.763V11.0577H3.08365V9H0V14.5711H2.72172V21.5V28.4289H0V34H12.5952V28.4989H10.3078V23.9636H11.9582L15.9973 28.4989H13.956V34H27V28.4289H24.9732L18.8349 21.5L24.9732 14.5711H27Z" fill="#48DBB4"/>
<path d="M44.2656 33V31.0312L46.8125 30.5938V12.6719L44.2656 12.2344V10.25H52.4375V12.2344L49.8906 12.6719V22.4531L58.8281 12.5312L58.8906 12.4531L57.1875 12.2344V10.25H64.4844V12.2344L62.3438 12.625L55.3906 20.1875L63.2031 30.6406L65.2969 31.0312V33H57.7031V31.0312L59.5781 30.8125L59.5625 30.7969L53.4531 22.3125L49.8906 26.1875V30.5938L52.4375 31.0312V33H44.2656ZM67.7344 33V31.0312L70.2812 30.5938V12.6719L67.7344 12.2344V10.25H84.5781V15.7188H82.1094L81.7656 12.625H73.3594V20.0312H81.75V22.4531H73.3594V30.6875H82.2656L82.6094 27.5469H85.0625V33H67.7344ZM88.1406 33V31.0312L90.6875 30.5938V12.6719L88.1406 12.2344V10.25H104.984V15.7188H102.516L102.172 12.625H93.7656V20.0312H102.156V22.4531H93.7656V30.6875H102.672L103.016 27.5469H105.469V33H88.1406ZM108.547 33V31.0312L111.094 30.5938V12.6719L108.547 12.2344V10.25H119C121.427 10.25 123.312 10.875 124.656 12.125C126.01 13.375 126.688 15.0208 126.688 17.0625C126.688 19.125 126.01 20.776 124.656 22.0156C123.312 23.2552 121.427 23.875 119 23.875H114.172V30.5938L116.719 31.0312V33H108.547ZM114.172 21.4688H119C120.542 21.4688 121.693 21.0573 122.453 20.2344C123.224 19.401 123.609 18.3542 123.609 17.0938C123.609 15.8333 123.224 14.7812 122.453 13.9375C121.693 13.0938 120.542 12.6719 119 12.6719H114.172V21.4688ZM145 33.3281C143.615 33.3281 142.281 33.125 141 32.7188C139.719 32.3125 138.495 31.6875 137.328 30.8438V25.9844H139.719L140.234 29.5625C140.911 29.9792 141.646 30.3021 142.438 30.5312C143.229 30.7604 144.083 30.875 145 30.875C146.552 30.875 147.755 30.5312 148.609 29.8438C149.464 29.1458 149.891 28.2344 149.891 27.1094C149.891 26.0677 149.505 25.2031 148.734 24.5156C147.964 23.8281 146.589 23.2604 144.609 22.8125C142.255 22.2708 140.458 21.4479 139.219 20.3438C137.979 19.2292 137.359 17.8281 137.359 16.1406C137.359 14.9531 137.672 13.8906 138.297 12.9531C138.932 12.0156 139.812 11.276 140.938 10.7344C142.062 10.1927 143.375 9.92188 144.875 9.92188C146.469 9.92188 147.875 10.1667 149.094 10.6562C150.323 11.1354 151.333 11.7188 152.125 12.4062V16.9531H149.734L149.219 13.7031C148.75 13.3281 148.167 13.0156 147.469 12.7656C146.771 12.5156 145.906 12.3906 144.875 12.3906C143.552 12.3906 142.479 12.7292 141.656 13.4062C140.844 14.0833 140.438 14.9792 140.438 16.0938C140.438 17.0729 140.828 17.875 141.609 18.5C142.391 19.1146 143.745 19.6615 145.672 20.1406C148.068 20.7344 149.88 21.6146 151.109 22.7812C152.349 23.9375 152.969 25.3698 152.969 27.0781C152.969 28.2969 152.641 29.3802 151.984 30.3281C151.328 31.2656 150.401 32 149.203 32.5312C148.016 33.0625 146.615 33.3281 145 33.3281ZM161.25 33V31.0312L163.797 30.5938V12.5781H158.641L158.188 15.7344H155.875V10.25H174.781V15.7344H172.5L172.031 12.5781H166.875V30.5938L169.422 31.0312V33H161.25ZM173.688 33V31.0312L175.375 30.7969L183.328 10.25H185.969L193.781 30.7969L195.453 31.0312V33H188.922V31.0312L190.641 30.7344L189.141 26.5469H180.031L178.484 30.7344L180.203 31.0312V33H173.688ZM180.984 23.9688H188.203L184.859 14.7188L184.672 14.2031H184.578L184.391 14.7188L180.984 23.9688ZM199.688 33V31.0312L202.234 30.5938V12.5781H197.078L196.625 15.7344H194.312V10.25H213.219V15.7344H210.938L210.469 12.5781H205.312V30.5938L207.859 31.0312V33H199.688ZM224 33.3281C222.615 33.3281 221.281 33.125 220 32.7188C218.719 32.3125 217.495 31.6875 216.328 30.8438V25.9844H218.719L219.234 29.5625C219.911 29.9792 220.646 30.3021 221.438 30.5312C222.229 30.7604 223.083 30.875 224 30.875C225.552 30.875 226.755 30.5312 227.609 29.8438C228.464 29.1458 228.891 28.2344 228.891 27.1094C228.891 26.0677 228.505 25.2031 227.734 24.5156C226.964 23.8281 225.589 23.2604 223.609 22.8125C221.255 22.2708 219.458 21.4479 218.219 20.3438C216.979 19.2292 216.359 17.8281 216.359 16.1406C216.359 14.9531 216.672 13.8906 217.297 12.9531C217.932 12.0156 218.812 11.276 219.938 10.7344C221.062 10.1927 222.375 9.92188 223.875 9.92188C225.469 9.92188 226.875 10.1667 228.094 10.6562C229.323 11.1354 230.333 11.7188 231.125 12.4062V16.9531H228.734L228.219 13.7031C227.75 13.3281 227.167 13.0156 226.469 12.7656C225.771 12.5156 224.906 12.3906 223.875 12.3906C222.552 12.3906 221.479 12.7292 220.656 13.4062C219.844 14.0833 219.438 14.9792 219.438 16.0938C219.438 17.0729 219.828 17.875 220.609 18.5C221.391 19.1146 222.745 19.6615 224.672 20.1406C227.068 20.7344 228.88 21.6146 230.109 22.7812C231.349 23.9375 231.969 25.3698 231.969 27.0781C231.969 28.2969 231.641 29.3802 230.984 30.3281C230.328 31.2656 229.401 32 228.203 32.5312C227.016 33.0625 225.615 33.3281 224 33.3281Z" fill="black"/>
</svg>
